<svg height="80px" width="80px" viewBox="0 0 80 80" version="1.1" xmlns="http://www.w3.org/2000/svg"><g id="oritentation_sectional-left" stroke="none" stroke-width="1" fill="none" fill-rule="evenodd"><g id="Group-6" transform="translate(7.000000, 8.000000)"><g id="Walking-Man" transform="translate(36.000000, 32.000000)"><g id="for-cole-2"><path d="M15.8562874,5.28891018 C15.8562874,5.28891018 15.9520958,4.23501796 16,3.22902994 C16.0479042,2.22304192 15.9520958,1.69609581 15.9041916,1.36076647 C15.8562874,1.02543713 15.3293413,-0.0284550898 14.9461078,0.0194491018 C14.5628743,0.0673532934 14.1796407,0.354778443 13.4610778,1.83980838 C13.4610778,1.83980838 13.2215569,2.41465868 13.4610778,3.70807186 C13.7005988,5.00148503 13.748503,5.52843114 13.748503,5.52843114 L15.8562874,5.28891018" id="Fill-1" fill="#581A04"></path><path d="M4.45508982,25.9356168 C4.45508982,25.9356168 3.88023952,25.2649581 3.4011976,25.504479 C2.92215569,25.744 2.73053892,26.4146587 2.77844311,27.3727425 C2.82634731,28.3308263 2.97005988,28.9056766 3.35329341,29.4805269 C3.73652695,30.0553772 4.88622754,31.3487904 5.02994012,31.5404072 C5.17365269,31.732024 5.74850299,32.2110659 6.2754491,31.8757365 C6.80239521,31.5404072 6.94610778,31.5404072 6.94610778,31.2050778 C6.94610778,30.8697485 4.45508982,25.9356168 4.45508982,25.9356168" id="Fill-2" fill="#581A04"></path><path d="M16.9101796,11.8517844 C16.9101796,11.755976 16.9101796,9.60028743 16.9101796,9.60028743 C16.9101796,9.60028743 16.8622754,8.69010778 16.5748503,8.0194491 C16.2874251,7.34879042 15.9041916,5.62423952 15.9520958,5.1931018 L15.2335329,4.85777246 C15.2335329,4.85777246 14.8982036,4.71405988 14.5149701,4.85777246 C14.1317365,5.00148503 13.4610778,5.38471856 13.4610778,5.38471856 L13.2694611,10.5583713 L16.9101796,11.8517844" id="Fill-3" fill="#485963"></path><g id="Group-6" transform="translate(13.269461, 4.790419)"><mask id="mask-2" fill="white"><path d="M3.64071856,7.06136527 C3.64071856,6.96555689 3.64071856,4.80986826 3.64071856,4.80986826 C3.64071856,4.80986826 3.59281437,3.89968862 3.30538922,3.22902994 C3.01796407,2.55837126 2.63473054,0.833820359 2.68263473,0.402682635 L1.96407186,0.0673532934 C1.96407186,0.0673532934 1.62874251,-0.0763592814 1.24550898,0.0673532934 C0.862275449,0.211065868 0.191616766,0.594299401 0.191616766,0.594299401 L0,5.7679521 L3.64071856,7.06136527" id="path-1"></path></mask><g id="Clip-5"></g><path d="M2.68263473,6.77394012 C2.68263473,6.77394012 2.82634731,4.28292216 2.82634731,4.0434012 C2.82634731,3.79913772 2.63473054,2.98950898 2.44311377,2.3188503 C2.25149701,1.64819162 1.62874251,-0.555401198 1.62874251,-0.555401198 L4.31137725,0.0194491018 L4.31137725,6.05537725 L3.88023952,7.4445988 L2.68263473,6.77394012" id="Fill-4" fill="#10171A" mask="url(#mask-2)"></path></g><path d="M17.2934132,21.6242395 L17.2934132,21.9116647 C17.2934132,21.9116647 16.9101796,22.1990898 16.9580838,22.6302275 C17.005988,23.0613653 17.3892216,22.9655569 17.3892216,22.9655569 C17.3892216,22.9655569 17.5056766,22.8772216 17.5808383,23.252982 C17.6287425,23.492503 17.6766467,24.498491 17.6766467,24.498491 C17.6766467,24.498491 17.7485988,24.6840719 17.9161677,24.6422036 C18.1077844,24.5942994 18.4431138,24.1631617 18.5389222,23.6841198 C18.6347305,23.2050778 18.7784431,22.1990898 18.5389222,21.8637605 L18.3473054,21.5763353 L17.2934132,21.6242395" id="Fill-7" fill="#EABD87"></path><path d="M0.526946108,11.2769341 L0.479041916,11.0374132 C0.479041916,11.0374132 0.383233533,10.2709461 0.526946108,9.88771257 C0.670658683,9.50447904 1.05389222,9.07334132 1.62874251,9.07334132 C1.62874251,9.07334132 1.82035928,9.07334132 1.96407186,9.1691497 C2.10778443,9.26495808 2.20359281,9.31286228 2.2994012,9.31286228 C2.39520958,9.31286228 2.54922156,9.22553293 2.58682635,9.1691497 C2.68263473,9.02543713 2.8742515,9.07334132 2.8742515,9.21705389 C2.8742515,9.36076647 2.77844311,9.60028743 2.63473054,9.79190419 C2.49101796,9.98352096 2.34730539,10.1272335 2.25149701,10.2709461 C2.15568862,10.4146587 1.62874251,11.0374132 1.62874251,11.1811257 C1.62874251,11.3248383 1.58083832,11.3248383 1.58083832,11.3248383 L0.526946108,11.2769341" id="Fill-8" fill="#EABD87"></path><path d="M14.5628743,7.39669461 C14.3712575,6.91765269 13.8922156,7.34879042 13.8922156,7.34879042 C13.8922156,7.34879042 8.81437126,8.30687425 8.6754491,8.67506587 L8.38323353,7.39669461 C8.38323353,7.39669461 7.95209581,7.10926946 7.85628743,7.49250299 C7.76047904,7.87573653 7.80838323,8.49849102 8.19161677,8.92962874 C8.41164072,9.1771497 8.56838323,9.18773653 8.66208383,9.1519521 C8.71731737,9.51161677 8.86227545,9.88771257 8.86227545,9.88771257 L8.81437126,10.0793293 L9.34131737,11.0374132 L10.8742515,11.5164551 L12.3592814,11.4206467 C12.3592814,11.4206467 12.4412455,11.3335569 13.0778443,10.749988 C13.6526946,10.2230419 13.9401198,9.21705389 13.9401198,9.21705389 L14.0838323,9.12124551 C14.4670659,8.78591617 14.754491,7.87573653 14.5628743,7.39669461" id="Fill-9" fill="#EBB77E"></path><path d="M14.2275449,10.6062754 C14.2275449,10.6062754 17.5329341,11.6122635 18.1556886,12.0913054 C18.7784431,12.5703473 18.9700599,13.1931018 18.9700599,13.7679521 C18.9700599,14.3428024 18.6347305,17.2649581 18.5868263,17.7919042 C18.5389222,18.3188503 18.3473054,21.0493892 18.5389222,21.6721437 C18.5389222,21.6721437 18.011976,22.1511856 17.1017964,21.6721437 C17.1017964,21.6721437 17.245509,18.2230419 16.8143713,17.2170539 C16.8143713,17.2170539 16.1916168,20.9056766 15.2814371,22.0074731 C14.3712575,23.1092695 13.1257485,23.6841198 11.8802395,23.5883114 C10.6347305,23.492503 9.34131737,23.3008862 9.34131737,23.3008862 C9.34131737,23.3008862 8.5748503,23.1571737 8.47904192,23.492503 C8.38323353,23.8278323 8.14371257,25.0733413 7.95209581,27.4206467 C7.76047904,29.7679521 7.56886228,30.8218443 7.56886228,30.8218443 C7.56886228,30.8218443 7.52095808,31.252982 6.89820359,31.3487904 C6.2754491,31.4445988 5.84431138,31.4445988 5.55688623,31.3487904 C5.26946108,31.252982 4.5988024,30.5823234 4.5508982,30.4386108 C4.50299401,30.2948982 4.26347305,23.732024 3.9760479,23.1092695 C3.68862275,22.486515 2.97005988,19.0853174 3.92814371,17.6002874 L4.40718563,16.8338204 C4.40718563,16.8338204 4.0239521,16.8338204 3.54491018,17.0733413 C3.06586826,17.3128623 0.383233533,17.6960958 0.0958083832,15.6362156 C-0.191616766,13.5763353 0.479041916,11.2290299 0.479041916,11.2290299 L1.7245509,11.2290299 C1.7245509,11.2290299 1.58083832,12.3787305 2.10778443,12.5224431 C2.63473054,12.6661557 3.06586826,11.9475928 3.25748503,11.755976 C3.4491018,11.5643593 3.78443114,11.0374132 5.79640719,10.8937006 C7.80838323,10.749988 8.14371257,10.5583713 8.14371257,10.5583713 L10.8742515,11.8038802 L12.8862275,11.2769341 L14.2275449,10.6062754" id="Fill-10" fill="#008F90"></path><g id="Group-14" transform="translate(0.000000, 10.538922)"><mask id="mask-4" fill="white"><path d="M14.2275449,0.0673532934 C14.2275449,0.0673532934 17.5329341,1.07334132 18.1556886,1.55238323 C18.7784431,2.03142515 18.9700599,2.65417964 18.9700599,3.22902994 C18.9700599,3.80388024 18.6347305,6.72603593 18.5868263,7.25298204 C18.5389222,7.77992814 18.3473054,10.5104671 18.5389222,11.1332216 C18.5389222,11.1332216 18.011976,11.6122635 17.1017964,11.1332216 C17.1017964,11.1332216 17.245509,7.68411976 16.8143713,6.67813174 C16.8143713,6.67813174 16.1916168,10.3667545 15.2814371,11.4685509 C14.3712575,12.5703473 13.1257485,13.1451976 11.8802395,13.0493892 C10.6347305,12.9535808 9.34131737,12.7619641 9.34131737,12.7619641 C9.34131737,12.7619641 8.5748503,12.6182515 8.47904192,12.9535808 C8.38323353,13.2889102 8.14371257,14.5344192 7.95209581,16.8817246 C7.76047904,19.2290299 7.56886228,20.2829222 7.56886228,20.2829222 C7.56886228,20.2829222 7.52095808,20.7140599 6.89820359,20.8098683 C6.2754491,20.9056766 5.84431138,20.9056766 5.55688623,20.8098683 C5.26946108,20.7140599 4.5988024,20.0434012 4.5508982,19.8996886 C4.50299401,19.755976 4.26347305,13.1931018 3.9760479,12.5703473 C3.68862275,11.9475928 2.97005988,8.54639521 3.92814371,7.06136527 L4.40718563,6.2948982 C4.40718563,6.2948982 4.0239521,6.2948982 3.54491018,6.53441916 C3.06586826,6.77394012 0.383233533,7.15717365 0.0958083832,5.09729341 C-0.191616766,3.03741317 0.479041916,0.690107784 0.479041916,0.690107784 L1.7245509,0.690107784 C1.7245509,0.690107784 1.58083832,1.83980838 2.10778443,1.98352096 C2.63473054,2.12723353 3.06586826,1.40867066 3.25748503,1.21705389 C3.4491018,1.02543713 3.78443114,0.498491018 5.79640719,0.354778443 C7.80838323,0.211065868 8.14371257,0.0194491018 8.14371257,0.0194491018 L10.8742515,1.26495808 L12.8862275,0.738011976 L14.2275449,0.0673532934" id="path-3"></path></mask><g id="Clip-12"></g><path d="M17.4850299,0.977532934 C17.4850299,0.977532934 16.6227545,4.13920958 16.8143713,6.67813174 C17.005988,9.21705389 16.7664671,11.5643593 16.7664671,11.5643593 L19.8323353,11.755976 C19.8323353,11.755976 19.8323353,1.40867066 19.7365269,1.36076647 C19.6407186,1.31286228 17.4850299,0.977532934 17.4850299,0.977532934" id="Fill-11" fill="#0E1918" mask="url(#mask-4)"></path><path d="M3.4491018,7.01346108 L7.80838323,9.744 C7.80838323,9.744 9.96407186,11.0374132 12.0718563,10.2230419 C14.1796407,9.40867066 16.8143713,7.49250299 16.8143713,7.49250299 L15.8562874,13.8637605 L9.00598802,21.3368144 L3.25748503,21.1931018 L3.4491018,7.01346108" id="Fill-13" fill="#495963" mask="url(#mask-4)"></path></g><path d="M8.81437126,10.0793293 L8.14371257,10.5583713 C8.14371257,10.5583713 8.95405988,12.1849102 11.2095808,12.235018 C13.3652695,12.2829222 14.2275449,10.6062754 14.2275449,10.6062754 L13.5568862,10.1272335 C13.5568862,10.1272335 12.502994,11.5643593 11.0658683,11.4206467 C9.62874251,11.2769341 8.81437126,10.0793293 8.81437126,10.0793293" id="Fill-15" fill="#69B2B2"></path><path d="M14.0838323,7.32483832 C14.0838323,9.42816766 12.7862515,11.1332216 11.1856287,11.1332216 C9.58500599,11.1332216 8.28742515,9.42816766 8.28742515,7.32483832 C8.28742515,5.22155689 9.58500599,3.51645509 11.1856287,3.51645509 C12.7862515,3.51645509 14.0838323,5.22155689 14.0838323,7.32483832" id="Fill-16" fill="#0B0C0A"></path><g id="Group-28" transform="translate(0.000000, 10.538922)"><mask id="mask-6" fill="white"><path d="M18.1556886,1.55238323 C18.7784431,2.03142515 18.9700599,2.65417964 18.9700599,3.22902994 C18.9700599,3.80388024 18.6347305,6.72603593 18.5868263,7.25298204 C18.5389222,7.77992814 18.3473054,10.5104671 18.5389222,11.1332216 C18.5389222,11.1332216 18.011976,11.6122635 17.1017964,11.1332216 C17.1017964,11.1332216 17.245509,7.68411976 16.8143713,6.67813174 C16.8143713,6.67813174 16.1916168,10.3667545 15.2814371,11.4685509 C14.3712575,12.5703473 13.1257485,13.1451976 11.8802395,13.0493892 C10.6347305,12.9535808 9.34131737,12.7619641 9.34131737,12.7619641 C9.34131737,12.7619641 8.5748503,12.6182515 8.47904192,12.9535808 C8.38323353,13.2889102 8.14371257,14.5344192 7.95209581,16.8817246 C7.76047904,19.2290299 7.56886228,20.2829222 7.56886228,20.2829222 C7.56886228,20.2829222 7.52095808,20.7140599 6.89820359,20.8098683 C6.2754491,20.9056766 5.84431138,20.9056766 5.55688623,20.8098683 C5.26946108,20.7140599 4.5988024,20.0434012 4.5508982,19.8996886 C4.50299401,19.755976 4.26347305,13.1931018 3.9760479,12.5703473 C3.68862275,11.9475928 2.97005988,8.54639521 3.92814371,7.06136527 L4.40718563,6.2948982 C4.40718563,6.2948982 4.0239521,6.2948982 3.54491018,6.53441916 C3.06586826,6.77394012 0.383233533,7.15717365 0.0958083832,5.09729341 C-0.191616766,3.03741317 0.479041916,0.690107784 0.479041916,0.690107784 L1.7245509,0.690107784 C1.7245509,0.690107784 1.58083832,1.83980838 2.10778443,1.98352096 C2.63473054,2.12723353 3.06586826,1.40867066 3.25748503,1.21705389 C3.4491018,1.02543713 3.78443114,0.498491018 5.79640719,0.354778443 C7.80838323,0.211065868 8.14371257,0.0194491018 8.14371257,0.0194491018 L10.8742515,1.26495808 L12.8862275,0.738011976 L14.2275449,0.0673532934 C14.2275449,0.0673532934 17.5329341,1.07334132 18.1556886,1.55238323 Z" id="path-5"></path></mask><g id="Clip-27"></g><path d="M2.36383234,6.72833533 C1.42706587,6.72833533 0.278371257,6.40560479 0.0958083832,5.09729341 C0.0451257485,4.73422754 0.0241915493,4.36220359 0.0241915493,3.99564072 C0.0240479042,2.77892216 0.25360479,1.6228503 0.386634731,1.05523353 C1.45039521,3.87156886 2.43415569,4.18711377 3.25748503,4.18711377 C4.11976048,4.18711377 5.1257485,3.22902994 5.1257485,3.22902994 C6.17964072,5.24100599 4.5154012,6.21652695 4.5154012,6.21652695 L4.40364072,6.29494611 C4.36411976,6.29566467 3.99722156,6.30826347 3.54491018,6.53441916 C3.37010778,6.62184431 2.90194012,6.72833533 2.36383234,6.72833533" id="Fill-26" fill="#204948" mask="url(#mask-6)"></path></g><g id="Group-25" transform="translate(0.000000, 10.059880)"><mask id="mask-8" fill="white"><path d="M18.9700599,3.70807186 C18.9700599,3.13322156 18.7784431,2.51046707 18.1556886,2.03142515 C17.5329341,1.55238323 14.2275449,0.54639521 14.2275449,0.54639521 L13.5568862,0.0673532934 C13.5568862,0.0673532934 12.502994,1.50447904 11.0658683,1.36076647 C9.62874251,1.21705389 8.81437126,0.0194491018 8.81437126,0.0194491018 L8.14371257,0.498491018 C8.14371257,0.498491018 7.80838323,0.690107784 5.79640719,0.833820359 C3.78443114,0.977532934 3.4491018,1.50447904 3.25748503,1.69609581 C3.06586826,1.88771257 2.63473054,2.60627545 2.10778443,2.46256287 C1.58083832,2.3188503 1.7245509,1.1691497 1.7245509,1.1691497 L0.479041916,1.1691497 C0.479041916,1.1691497 -0.191616766,3.51645509 0.0958083832,5.57633533 C0.383233533,7.63621557 3.06586826,7.25298204 3.54491018,7.01346108 C4.0239521,6.77394012 4.40718563,6.77394012 4.40718563,6.77394012 L3.92814371,7.54040719 C2.97005988,9.02543713 3.68862275,12.4266347 3.9760479,13.0493892 C4.26347305,13.6721437 4.50299401,20.235018 4.5508982,20.3787305 C4.5988024,20.5224431 5.26946108,21.1931018 5.55688623,21.2889102 C5.84431138,21.3847186 6.2754491,21.3847186 6.89820359,21.2889102 C7.52095808,21.1931018 7.56886228,20.7619641 7.56886228,20.7619641 C7.56886228,20.7619641 7.76047904,19.7080719 7.95209581,17.3607665 C8.14371257,15.0134611 8.38323353,13.7679521 8.47904192,13.4326228 C8.5748503,13.0972934 9.34131737,13.241006 9.34131737,13.241006 C9.34131737,13.241006 10.6347305,13.4326228 11.8802395,13.5284311 C13.1257485,13.6242395 14.3712575,13.0493892 15.2814371,11.9475928 C16.1916168,10.8457964 16.8143713,7.15717365 16.8143713,7.15717365 C17.245509,8.16316168 17.1017964,11.6122635 17.1017964,11.6122635 C18.011976,12.0913054 18.5389222,11.6122635 18.5389222,11.6122635 C18.3473054,10.989509 18.5389222,8.25897006 18.5868263,7.73202395 C18.6347305,7.20507784 18.9700599,4.28292216 18.9700599,3.70807186 L5.55688623,12.235018" id="path-7"></path></mask><g id="Clip-19"></g><path d="M10.5798323,10.9712575 C9.05537725,10.9712575 7.80838323,10.2230419 7.80838323,10.2230419 L7.35444311,9.93873054 C7.37647904,9.80277844 7.52301796,9.8377485 8.86227545,8.49849102 C10.6826347,6.67813174 11.5928144,3.51645509 11.8323353,2.51046707 C11.8508743,2.43271856 11.8401437,2.29681437 11.8151856,2.14155689 C13.528479,1.90601198 14.2275449,0.54639521 14.2275449,0.54639521 C14.2275449,0.54639521 16.2539401,1.16316168 17.4324311,1.66079042 C17.2481437,2.39947305 16.6517365,5.00258683 16.8143713,7.15717365 C16.8143713,7.15717365 16.7492216,7.54308982 16.6302275,8.10265868 C15.9966467,8.54840719 13.8473293,10.0160958 12.0718563,10.7020838 C11.5671856,10.8971018 11.0597365,10.9712575 10.5798323,10.9712575" id="Fill-18" fill="#007877" mask="url(#mask-8)"></path><path d="M18.4521677,11.7122635 L18.4521677,11.7122635 C18.5180429,11.6559551 18.5521677,11.6122635 18.5521677,11.6122635 C18.5521677,11.6122635 18.5180981,11.6559551 18.4521677,11.7122635" id="Fill-20" fill="#2D2E2C" mask="url(#mask-8)"></path><path d="M17.8791377,11.8251976 C18.1535329,11.8251018 18.3484072,11.7366228 18.4521677,11.6737725 C18.3484072,11.7366707 18.1535808,11.8251497 17.8791377,11.8251976" id="Fill-21" fill="#DC9559" mask="url(#mask-8)"></path><path d="M17.8788982,11.8251976 C17.8787545,11.8251976 17.8786587,11.8251976 17.8784671,11.8251976 C17.6677365,11.8251976 17.4099641,11.7728383 17.1106108,11.6168623 C17.108503,11.6157605 17.1063473,11.6146587 17.1042395,11.6135569 C17.1034251,11.6131257 17.1026108,11.6126946 17.1017964,11.6122635 C17.1017964,11.6122635 17.1248383,11.0593533 17.1247904,10.3316886 C17.1247425,9.24196407 17.0728623,7.76038323 16.8143713,7.15717365 C16.6517365,5.00258683 17.2481437,2.39947305 17.4324311,1.66079042 C17.7590898,1.79870659 18.020503,1.92747305 18.1556886,2.03142515 C18.7784431,2.51046707 18.9700599,3.13322156 18.9700599,3.70807186 C18.9700599,4.28292216 18.6347305,7.20507784 18.5868263,7.73202395 C18.5542994,8.08991617 18.4554731,9.46438323 18.4554251,10.5045269 C18.4554251,10.9957844 18.4774611,11.412503 18.5389222,11.6122635 C18.5389222,11.6122635 18.5093174,11.6391377 18.4521677,11.6737725 C18.3484072,11.7366228 18.1535329,11.8251976 17.8791377,11.8251976 C17.8790419,11.8251976 17.878994,11.8251976 17.8788982,11.8251976" id="Fill-22" fill="#042B2C" mask="url(#mask-8)"></path><path d="M6.34778443,21.3521437 C6.68320958,20.8543234 6.85652695,18.8208862 6.94610778,18.4625629 C7.04191617,18.0793293 6.94610778,14.8697485 6.94610778,14.0553772 C6.94610778,13.241006 7.23353293,10.8457964 7.32934132,10.2230419 C7.35468263,10.058491 7.34653892,9.98754491 7.35444311,9.93873054 L7.80838323,10.2230419 C7.80838323,10.2230419 9.05537725,10.9712575 10.5798323,10.9712575 C11.0597365,10.9712575 11.5671856,10.8971018 12.0718563,10.7020838 C13.8473293,10.0160958 15.9966467,8.54840719 16.6302275,8.10265868 C16.3814132,9.27286228 15.8971976,11.2022036 15.2814371,11.9475928 C15.2790419,11.950515 15.2766467,11.9533892 15.2742515,11.9562635 C15.271521,11.9595689 15.2687904,11.9628743 15.2660599,11.9661317 C15.2648623,11.967521 15.2636647,11.9689581 15.262515,11.9703952 C14.420024,12.9783952 13.2950419,13.5385868 12.1495569,13.5387784 C12.1494132,13.5387784 12.1492216,13.5387784 12.1490778,13.5387784 L12.1490299,13.5387784 C12.0612695,13.5387784 11.9734132,13.5354731 11.8855569,13.5288623 C11.8837844,13.5287186 11.8819641,13.5285749 11.8802395,13.5284311 C10.6347305,13.4326228 9.34131737,13.241006 9.34131737,13.241006 C9.34131737,13.241006 9.34122156,13.241006 9.34107784,13.2409581 C9.33432335,13.2397126 9.17422754,13.2104431 8.99300599,13.2103952 C8.99295808,13.2103952 8.99286228,13.2103952 8.99281437,13.2103952 C8.99267066,13.2103952 8.99252695,13.2103952 8.99238323,13.2103952 C8.77762874,13.2104431 8.53350898,13.2516886 8.4799521,13.4294611 C8.4799521,13.429509 8.4799521,13.4294611 8.4799521,13.429509 C8.47966467,13.430515 8.47932934,13.4315689 8.47904192,13.4326228 C8.38323353,13.7679521 8.14371257,15.0134611 7.95209581,17.3607665 C7.76047904,19.7080719 7.56886228,20.7619641 7.56886228,20.7619641 C7.56886228,20.7619641 7.52282635,21.1763832 6.93413174,21.2829222 C6.92239521,21.2850299 6.91041916,21.2870419 6.89820359,21.2889102 C6.6948503,21.3201916 6.5119521,21.3412695 6.34778443,21.3521437" id="Fill-23" fill="#0B2535" mask="url(#mask-8)"></path><path d="M11.6281677,1.3394491 C12.769485,1.14069461 13.5568862,0.0673532934 13.5568862,0.0673532934 L14.2275449,0.54639521 C14.2275449,0.54639521 13.528479,1.90601198 11.8151856,2.14155689 C11.7701078,1.86165269 11.6786108,1.51870659 11.6281677,1.3394491 Z" id="Fill-24" fill="#007677" mask="url(#mask-8)"></path></g></g></g><rect id="Rectangle" stroke="#4A4A4A" stroke-width="2" x="0" y="0" width="22" height="49"></rect><rect id="Rectangle" stroke="#4A4A4A" stroke-width="2" x="22" y="0" width="22" height="24"></rect><rect id="Rectangle-Copy-2" stroke="#4A4A4A" stroke-width="2" x="44" y="0" width="22" height="24"></rect><rect id="Rectangle" fill="#4A4A4A" x="0" y="0" width="6" height="24"></rect><rect id="Rectangle-Copy-3" fill="#4A4A4A" x="60" y="0" width="6" height="24"></rect></g><rect id="Rectangle" fill="#4A4A4A" x="8" y="8" width="64" height="6"></rect></g></svg>